<svg width="309" height="35" viewBox="0 0 309 35" fill="none" xmlns="http://www.w3.org/2000/svg">
<path d="M41.1869 19.9589H37.6808V25.3102C37.6808 26.0791 37.4963 26.6635 37.1272 27.0325C36.7581 27.4323 36.3276 27.6169 35.774 27.6169C35.1896 27.6169 34.7283 27.4323 34.39 27.0325C34.0517 26.6327 33.8672 26.0791 33.8672 25.3102V10.7939C33.8672 9.96351 34.0517 9.34843 34.4515 8.97937C34.8513 8.61031 35.4357 8.42578 36.2968 8.42578H41.1869C42.6323 8.42578 43.7395 8.54879 44.5392 8.76408C45.308 8.97936 45.9846 9.34842 46.5382 9.8405C47.0918 10.3326 47.5224 10.9477 47.8299 11.6551C48.1067 12.3624 48.2605 13.1928 48.2605 14.0847C48.2605 15.9915 47.6762 17.4677 46.4767 18.4519C45.308 19.4668 43.5242 19.9589 41.1869 19.9589ZM40.2642 11.3167H37.6808V17.0679H40.2642C41.1561 17.0679 41.925 16.9756 42.5093 16.7911C43.0937 16.6066 43.5857 16.299 43.8933 15.8685C44.2008 15.4379 44.3546 14.8843 44.3546 14.1769C44.3546 13.3466 44.1086 12.67 43.6165 12.1471C43.0937 11.5935 41.9865 11.3167 40.2642 11.3167Z" fill="white"/>
<path d="M55.1818 22.5404V25.4622C55.1818 26.1695 55.0281 26.6924 54.6898 27.0614C54.3515 27.4305 53.9209 27.5843 53.4288 27.5843C52.9367 27.5843 52.5062 27.3997 52.1679 27.0307C51.8296 26.6616 51.6758 26.1388 51.6758 25.4314V15.6513C51.6758 14.0828 52.2601 13.2832 53.3981 13.2832C53.9824 13.2832 54.413 13.4677 54.659 13.8368C54.905 14.2058 55.0588 14.7594 55.0896 15.4668C55.5202 14.7594 55.9507 14.2058 56.3813 13.8368C56.8119 13.4677 57.427 13.2832 58.1343 13.2832C58.8724 13.2832 59.5798 13.4677 60.2872 13.8368C60.9945 14.2058 61.3328 14.6979 61.3328 15.313C61.3328 15.7436 61.1791 16.0819 60.9023 16.3587C60.5947 16.6355 60.2872 16.7893 59.9489 16.7893C59.8258 16.7893 59.5183 16.697 59.0262 16.5432C58.5341 16.3894 58.1036 16.2972 57.7345 16.2972C57.2117 16.2972 56.8119 16.4202 56.4736 16.697C56.1353 16.9738 55.8892 17.3736 55.7047 17.8964C55.5202 18.4193 55.3971 19.0651 55.3356 19.8033C55.2126 20.6029 55.1818 21.4948 55.1818 22.5404Z" fill="white"/>
<path d="M75.8802 20.4798C75.8802 21.5255 75.7264 22.4789 75.3881 23.3708C75.0498 24.2627 74.5885 25.0008 73.9734 25.6467C73.3583 26.2926 72.6202 26.7539 71.7591 27.0922C70.8979 27.4305 69.9445 27.615 68.8681 27.615C67.7917 27.615 66.8383 27.4305 66.0079 27.0922C65.1467 26.7539 64.4394 26.2618 63.7935 25.6159C63.1784 24.9701 62.6863 24.232 62.3788 23.3401C62.0713 22.4789 61.8867 21.4948 61.8867 20.4491C61.8867 19.3727 62.0405 18.4193 62.3788 17.5274C62.7171 16.6355 63.1784 15.8974 63.7935 15.2515C64.4086 14.6364 65.1467 14.1443 66.0079 13.806C66.869 13.4677 67.8224 13.2832 68.8681 13.2832C69.9445 13.2832 70.8979 13.4677 71.7591 13.806C72.6202 14.1443 73.3583 14.6364 73.9734 15.2823C74.5885 15.9281 75.0498 16.6662 75.3881 17.5581C75.7264 18.45 75.8802 19.4342 75.8802 20.4798ZM72.3434 20.4798C72.3434 19.0344 72.0358 17.9272 71.39 17.1276C70.7749 16.3279 69.9138 15.9281 68.8373 15.9281C68.1607 15.9281 67.5456 16.1127 67.0228 16.451C66.5 16.82 66.1001 17.3428 65.8234 18.0195C65.5466 18.6961 65.3928 19.5265 65.3928 20.4491C65.3928 21.3718 65.5466 22.1714 65.8234 22.848C66.1001 23.5246 66.5 24.0474 67.0228 24.4165C67.5456 24.7856 68.1607 24.9701 68.8681 24.9701C69.9445 24.9701 70.7749 24.5703 71.4208 23.7706C72.0359 23.0018 72.3434 21.8946 72.3434 20.4798Z" fill="white"/>
<path d="M88.7658 25.6172V25.2789C88.3044 25.8325 87.8431 26.2631 87.3818 26.6014C86.9205 26.9397 86.4284 27.1858 85.8748 27.3703C85.352 27.5548 84.7676 27.6471 84.1218 27.6471C83.2914 27.6471 82.4918 27.4625 81.7844 27.1242C81.077 26.7552 80.4619 26.2631 79.9391 25.5865C79.4163 24.9406 79.0165 24.141 78.7397 23.2491C78.4629 22.3572 78.3398 21.4038 78.3398 20.3582C78.3398 18.1746 78.8627 16.4523 79.9391 15.2221C81.0155 13.9919 82.4303 13.3768 84.1833 13.3768C85.1982 13.3768 86.0593 13.5613 86.736 13.8996C87.4433 14.2379 88.1199 14.7915 88.7658 15.4989V10.332C88.7658 9.62467 88.9196 9.07108 89.1963 8.70202C89.4731 8.33296 89.9037 8.14844 90.4265 8.14844C90.9494 8.14844 91.3799 8.33297 91.6567 8.67128C91.9335 9.00958 92.0873 9.50165 92.0873 10.1783V25.648C92.0873 26.3246 91.9335 26.8167 91.626 27.155C91.3184 27.4933 90.9186 27.6471 90.4265 27.6471C89.9345 27.6471 89.5346 27.4625 89.2271 27.1242C88.9195 26.7552 88.7658 26.2631 88.7658 25.6172ZM81.8459 20.4504C81.8459 21.4038 81.9997 22.2035 82.2765 22.8801C82.584 23.5567 82.9838 24.0487 83.5067 24.387C84.0295 24.7254 84.5831 24.9099 85.1982 24.9099C85.8133 24.9099 86.3669 24.7561 86.8897 24.4178C87.4126 24.1103 87.8124 23.6182 88.1199 22.9416C88.4275 22.265 88.5812 21.4346 88.5812 20.4504C88.5812 19.5278 88.4275 18.6974 88.1199 18.0515C87.8124 17.3749 87.4126 16.8521 86.8897 16.5138C86.3669 16.1447 85.8133 15.9909 85.1982 15.9909C84.5523 15.9909 83.968 16.1755 83.4759 16.5445C82.9838 16.9136 82.584 17.4364 82.3072 18.113C82.0304 18.7897 81.8459 19.5585 81.8459 20.4504Z" fill="white"/>
<path d="M105.219 25.6477V25.1864C104.789 25.7092 104.358 26.1705 103.897 26.5088C103.435 26.8779 102.943 27.1239 102.39 27.3084C101.836 27.493 101.221 27.5852 100.514 27.5852C99.6525 27.5852 98.9144 27.4007 98.2378 27.0624C97.5612 26.7241 97.0384 26.232 96.6693 25.6169C96.2387 24.8788 96.0234 23.8024 96.0234 22.3876V15.437C96.0234 14.7297 96.1772 14.2068 96.4848 13.8685C96.7923 13.5302 97.2229 13.3457 97.7457 13.3457C98.2686 13.3457 98.6991 13.5302 99.0374 13.8685C99.3757 14.2068 99.5295 14.7297 99.5295 15.437V21.0652C99.5295 21.8648 99.591 22.5722 99.7448 23.1258C99.8986 23.6794 100.114 24.1099 100.483 24.4175C100.852 24.725 101.313 24.8788 101.928 24.8788C102.513 24.8788 103.066 24.6943 103.589 24.356C104.112 24.0177 104.481 23.5563 104.727 22.972C104.912 22.4799 105.035 21.3727 105.035 19.712V15.437C105.035 14.7297 105.188 14.2068 105.527 13.8685C105.865 13.5302 106.265 13.3457 106.788 13.3457C107.311 13.3457 107.741 13.5302 108.049 13.8685C108.356 14.2068 108.51 14.7297 108.51 15.437V25.6169C108.51 26.2935 108.356 26.7856 108.049 27.1239C107.741 27.4622 107.341 27.616 106.88 27.616C106.388 27.616 105.988 27.4315 105.68 27.0931C105.373 26.7548 105.219 26.2628 105.219 25.6477Z" fill="white"/>
<path d="M125.087 23.2795C125.087 23.7101 124.964 24.1714 124.688 24.6943C124.411 25.1863 124.042 25.6784 123.488 26.109C122.965 26.5703 122.289 26.9086 121.458 27.1854C120.659 27.4622 119.736 27.5852 118.721 27.5852C116.538 27.5852 114.846 26.9394 113.647 25.6784C112.416 24.4175 111.832 22.726 111.832 20.6039C111.832 19.1584 112.109 17.8974 112.662 16.7902C113.216 15.6831 114.016 14.8219 115.092 14.2376C116.138 13.6225 117.399 13.3457 118.875 13.3457C119.798 13.3457 120.628 13.4687 121.366 13.7455C122.135 14.0223 122.781 14.3606 123.304 14.7604C123.826 15.191 124.226 15.6216 124.503 16.1136C124.78 16.6057 124.934 17.0363 124.934 17.4361C124.934 17.8667 124.78 18.205 124.472 18.5125C124.165 18.7893 123.765 18.9431 123.334 18.9431C123.058 18.9431 122.812 18.8816 122.596 18.7278C122.412 18.574 122.196 18.328 121.95 17.9897C121.52 17.3438 121.059 16.8518 120.597 16.5135C120.136 16.1752 119.552 16.0214 118.813 16.0214C117.768 16.0214 116.937 16.4212 116.291 17.2516C115.646 18.0512 115.338 19.1584 115.338 20.5731C115.338 21.219 115.43 21.8341 115.584 22.3876C115.738 22.9412 115.984 23.4026 116.291 23.8024C116.599 24.2022 116.968 24.479 117.399 24.6943C117.829 24.9096 118.321 25.0018 118.844 25.0018C119.552 25.0018 120.136 24.848 120.659 24.5097C121.151 24.1714 121.612 23.6794 121.981 23.0335C122.196 22.6337 122.412 22.3261 122.689 22.1109C122.935 21.8956 123.242 21.7725 123.611 21.7725C124.042 21.7725 124.411 21.9263 124.688 22.2646C124.964 22.5722 125.087 22.9105 125.087 23.2795Z" fill="white"/>
<path d="M138.465 21.342H131.607C131.607 22.1416 131.791 22.849 132.099 23.4641C132.406 24.0792 132.837 24.5405 133.36 24.848C133.882 25.1556 134.436 25.3094 135.082 25.3094C135.513 25.3094 135.882 25.2479 136.22 25.1556C136.558 25.0633 136.896 24.9096 137.235 24.6943C137.573 24.479 137.85 24.2637 138.127 24.0177C138.403 23.7716 138.742 23.4641 139.203 23.0335C139.388 22.8797 139.634 22.7875 139.972 22.7875C140.341 22.7875 140.618 22.8797 140.833 23.095C141.048 23.2795 141.171 23.5563 141.171 23.9254C141.171 24.2329 141.048 24.602 140.802 25.0326C140.556 25.4632 140.187 25.863 139.664 26.2628C139.172 26.6626 138.527 26.9701 137.788 27.2469C137.05 27.5237 136.158 27.6468 135.174 27.6468C132.929 27.6468 131.176 27.0009 129.915 25.7092C128.654 24.4175 128.039 22.6644 128.039 20.4808C128.039 19.4352 128.193 18.4818 128.5 17.5899C128.808 16.698 129.269 15.9291 129.854 15.314C130.438 14.6989 131.176 14.2068 132.037 13.8685C132.898 13.5302 133.852 13.3457 134.928 13.3457C136.312 13.3457 137.481 13.6225 138.465 14.2068C139.449 14.7912 140.187 15.5293 140.679 16.4519C141.171 17.3746 141.417 18.2972 141.417 19.2506C141.417 20.1425 141.171 20.6961 140.649 20.9729C140.095 21.219 139.357 21.342 138.465 21.342ZM131.576 19.3429H137.942C137.85 18.1435 137.542 17.2516 136.958 16.6365C136.404 16.0521 135.666 15.7446 134.744 15.7446C133.882 15.7446 133.144 16.0521 132.591 16.6365C132.037 17.2823 131.699 18.1742 131.576 19.3429Z" fill="white"/>
<path d="M148.276 22.5404V25.4622C148.276 26.1695 148.122 26.6924 147.784 27.0614C147.445 27.4305 147.015 27.5843 146.523 27.5843C146.03 27.5843 145.6 27.3997 145.262 27.0307C144.923 26.6616 144.77 26.1388 144.77 25.4314V15.6513C144.77 14.0828 145.354 13.2832 146.492 13.2832C147.076 13.2832 147.507 13.4677 147.753 13.8368C147.999 14.2058 148.153 14.7594 148.183 15.4668C148.614 14.7594 149.044 14.2058 149.475 13.8368C149.906 13.4677 150.521 13.2832 151.228 13.2832C151.966 13.2832 152.674 13.4677 153.381 13.8368C154.088 14.2058 154.427 14.6979 154.427 15.313C154.427 15.7436 154.273 16.0819 153.996 16.3587C153.688 16.6355 153.381 16.7893 153.043 16.7893C152.92 16.7893 152.612 16.697 152.12 16.5432C151.628 16.3894 151.197 16.2972 150.828 16.2972C150.305 16.2972 149.906 16.4202 149.567 16.697C149.229 16.9738 148.983 17.3736 148.798 17.8964C148.614 18.4193 148.491 19.0651 148.429 19.8033C148.306 20.6029 148.276 21.4948 148.276 22.5404Z" fill="white"/>
<path d="M165.128 27.3079H159.377C158.547 27.3079 157.962 27.1233 157.593 26.7543C157.224 26.3852 157.07 25.8009 157.07 24.9705V10.7924C157.07 9.96206 157.255 9.37772 157.624 9.00866C157.993 8.6396 158.577 8.45508 159.377 8.45508H165.497C166.389 8.45508 167.189 8.51659 167.835 8.60885C168.48 8.73187 169.095 8.94715 169.618 9.2547C170.049 9.53149 170.449 9.86981 170.787 10.2696C171.125 10.6694 171.402 11.1308 171.556 11.6228C171.74 12.1149 171.833 12.6378 171.833 13.1913C171.833 15.0674 170.879 16.4514 169.003 17.3433C171.494 18.1429 172.725 19.6806 172.725 21.9565C172.725 23.0022 172.448 23.9556 171.925 24.8167C171.371 25.6471 170.664 26.2929 169.741 26.6928C169.157 26.9388 168.511 27.0926 167.773 27.2156C167.035 27.3386 166.112 27.3079 165.128 27.3079ZM160.884 11.3153V16.1746H164.39C165.343 16.1746 166.082 16.0823 166.604 15.8978C167.127 15.7132 167.527 15.3749 167.804 14.8829C168.019 14.5138 168.111 14.114 168.111 13.6834C168.111 12.73 167.773 12.1149 167.096 11.7766C166.42 11.4691 165.374 11.3153 163.99 11.3153H160.884ZM164.851 18.9425H160.884V24.4477H164.974C167.558 24.4477 168.849 23.525 168.849 21.649C168.849 20.6956 168.511 20.0189 167.835 19.5884C167.158 19.1578 166.174 18.9425 164.851 18.9425Z" fill="white"/>
<path d="M185.15 25.6477C184.289 26.2935 183.489 26.8164 182.689 27.1239C181.89 27.4315 180.998 27.616 180.014 27.616C179.122 27.616 178.322 27.4315 177.646 27.0931C176.969 26.7548 176.446 26.2628 176.077 25.6477C175.708 25.0326 175.523 24.3867 175.523 23.6794C175.523 22.726 175.831 21.8956 176.446 21.219C177.061 20.5424 177.892 20.081 178.968 19.8657C179.183 19.8042 179.737 19.712 180.629 19.5274C181.521 19.3429 182.259 19.1891 182.905 19.0354C183.52 18.8816 184.227 18.697 184.965 18.4818C184.934 17.5591 184.75 16.8825 184.412 16.4519C184.073 16.0214 183.397 15.8061 182.351 15.8061C181.459 15.8061 180.783 15.9291 180.352 16.1751C179.891 16.4212 179.522 16.7903 179.183 17.2823C178.845 17.7744 178.63 18.1127 178.507 18.2665C178.384 18.4203 178.076 18.5125 177.646 18.5125C177.246 18.5125 176.907 18.3895 176.631 18.1435C176.354 17.8974 176.2 17.5591 176.2 17.1593C176.2 16.5442 176.415 15.9291 176.846 15.3448C177.276 14.7604 177.953 14.2683 178.876 13.8993C179.798 13.5302 180.967 13.3457 182.32 13.3457C183.858 13.3457 185.088 13.5302 185.949 13.8993C186.841 14.2683 187.456 14.8527 187.825 15.6216C188.194 16.3904 188.379 17.4669 188.379 18.7586C188.379 19.5889 188.379 20.2656 188.379 20.8499C188.379 21.4342 188.379 22.0493 188.348 22.7567C188.348 23.4026 188.471 24.1099 188.687 24.8173C188.902 25.5247 189.025 25.986 189.025 26.2013C189.025 26.5703 188.84 26.8779 188.502 27.1854C188.164 27.493 187.795 27.616 187.364 27.616C186.995 27.616 186.657 27.4315 186.288 27.0931C185.919 26.7548 185.55 26.2935 185.15 25.6477ZM184.904 20.5731C184.381 20.7576 183.643 20.9729 182.659 21.1574C181.674 21.3727 180.998 21.5265 180.629 21.6188C180.26 21.711 179.891 21.8956 179.552 22.2031C179.214 22.4799 179.029 22.8797 179.029 23.4026C179.029 23.9254 179.245 24.3867 179.645 24.7558C180.044 25.1248 180.567 25.3094 181.213 25.3094C181.92 25.3094 182.536 25.1556 183.151 24.848C183.735 24.5405 184.166 24.1407 184.442 23.6794C184.75 23.1565 184.904 22.2646 184.904 21.0652V20.5731Z" fill="white"/>
<path d="M201.974 17.3742L195.546 24.5709H202.405C202.958 24.5709 203.389 24.6939 203.666 24.9707C203.942 25.2475 204.096 25.555 204.096 25.9856C204.096 26.3854 203.942 26.6929 203.666 26.939C203.389 27.185 202.958 27.308 202.405 27.308H192.901C192.225 27.308 191.733 27.1543 191.394 26.8775C191.056 26.6007 190.902 26.2009 190.902 25.678C190.902 25.3705 191.025 25.0629 191.241 24.7861C191.487 24.4786 191.948 23.925 192.686 23.0946C193.455 22.2335 194.162 21.4646 194.777 20.7572C195.393 20.0499 196.008 19.404 196.53 18.8197C197.084 18.2046 197.515 17.7125 197.884 17.2819C198.253 16.8514 198.53 16.5131 198.745 16.2055H193.517C192.809 16.2055 192.256 16.144 191.886 16.021C191.517 15.8979 191.333 15.5596 191.333 15.0061C191.333 14.6062 191.487 14.2679 191.763 14.0527C192.04 13.8066 192.44 13.6836 192.963 13.6836H201.021C201.759 13.6836 202.343 13.8066 202.743 14.0219C203.143 14.2372 203.327 14.637 203.327 15.1906C203.327 15.3751 203.297 15.5596 203.204 15.7749C203.112 15.9902 203.051 16.144 202.958 16.267C202.866 16.39 202.743 16.5438 202.558 16.7283C202.405 16.8821 202.22 17.1281 201.974 17.3742Z" fill="white"/>
<path d="M215.505 25.6477C214.644 26.2935 213.844 26.8164 213.045 27.1239C212.245 27.4315 211.353 27.616 210.369 27.616C209.477 27.616 208.678 27.4315 208.001 27.0931C207.324 26.7548 206.802 26.2628 206.433 25.6477C206.063 25.0326 205.879 24.3867 205.879 23.6794C205.879 22.726 206.186 21.8956 206.802 21.219C207.417 20.5424 208.247 20.081 209.323 19.8657C209.539 19.8042 210.092 19.712 210.984 19.5274C211.876 19.3429 212.614 19.1891 213.26 19.0354C213.875 18.8816 214.583 18.697 215.321 18.4818C215.29 17.5591 215.105 16.8825 214.767 16.4519C214.429 16.0214 213.752 15.8061 212.707 15.8061C211.815 15.8061 211.138 15.9291 210.707 16.1751C210.246 16.4212 209.877 16.7903 209.539 17.2823C209.2 17.7744 208.985 18.1127 208.862 18.2665C208.739 18.4203 208.432 18.5125 208.001 18.5125C207.601 18.5125 207.263 18.3895 206.986 18.1435C206.709 17.8974 206.556 17.5591 206.556 17.1593C206.556 16.5442 206.771 15.9291 207.201 15.3448C207.632 14.7604 208.309 14.2683 209.231 13.8993C210.154 13.5302 211.323 13.3457 212.676 13.3457C214.214 13.3457 215.444 13.5302 216.305 13.8993C217.197 14.2683 217.812 14.8527 218.181 15.6216C218.55 16.3904 218.734 17.4669 218.734 18.7586C218.734 19.5889 218.734 20.2656 218.734 20.8499C218.734 21.4342 218.734 22.0493 218.704 22.7567C218.704 23.4026 218.827 24.1099 219.042 24.8173C219.257 25.5247 219.38 25.986 219.38 26.2013C219.38 26.5703 219.196 26.8779 218.857 27.1854C218.519 27.493 218.15 27.616 217.72 27.616C217.351 27.616 217.012 27.4315 216.643 27.0931C216.274 26.7548 215.905 26.2935 215.505 25.6477ZM215.29 20.5731C214.767 20.7576 214.029 20.9729 213.045 21.1574C212.061 21.3727 211.384 21.5265 211.015 21.6188C210.646 21.711 210.277 21.8956 209.939 22.2031C209.6 22.4799 209.416 22.8797 209.416 23.4026C209.416 23.9254 209.631 24.3867 210.031 24.7558C210.431 25.1248 210.953 25.3094 211.599 25.3094C212.307 25.3094 212.922 25.1556 213.537 24.848C214.121 24.5405 214.552 24.1407 214.829 23.6794C215.136 23.1565 215.29 22.2646 215.29 21.0652V20.5731Z" fill="white"/>
<path d="M231.65 25.6477C230.789 26.2935 229.989 26.8164 229.189 27.1239C228.39 27.4315 227.498 27.616 226.514 27.616C225.622 27.616 224.822 27.4315 224.146 27.0931C223.469 26.7548 222.946 26.2628 222.577 25.6477C222.208 25.0326 222.023 24.3867 222.023 23.6794C222.023 22.726 222.331 21.8956 222.946 21.219C223.561 20.5424 224.392 20.081 225.468 19.8657C225.683 19.8042 226.237 19.712 227.129 19.5274C228.021 19.3429 228.759 19.1891 229.405 19.0354C230.02 18.8816 230.727 18.697 231.465 18.4818C231.434 17.5591 231.25 16.8825 230.912 16.4519C230.573 16.0214 229.897 15.8061 228.851 15.8061C227.959 15.8061 227.283 15.9291 226.852 16.1751C226.391 16.4212 226.022 16.7903 225.683 17.2823C225.345 17.7744 225.13 18.1127 225.007 18.2665C224.884 18.4203 224.576 18.5125 224.146 18.5125C223.746 18.5125 223.407 18.3895 223.131 18.1435C222.854 17.8974 222.7 17.5591 222.7 17.1593C222.7 16.5442 222.915 15.9291 223.346 15.3448C223.776 14.7604 224.453 14.2683 225.376 13.8993C226.298 13.5302 227.467 13.3457 228.82 13.3457C230.358 13.3457 231.588 13.5302 232.449 13.8993C233.341 14.2683 233.956 14.8527 234.325 15.6216C234.694 16.3904 234.879 17.4669 234.879 18.7586C234.879 19.5889 234.879 20.2656 234.879 20.8499C234.879 21.4342 234.879 22.0493 234.848 22.7567C234.848 23.4026 234.971 24.1099 235.187 24.8173C235.402 25.5247 235.525 25.986 235.525 26.2013C235.525 26.5703 235.34 26.8779 235.002 27.1854C234.664 27.493 234.295 27.616 233.864 27.616C233.495 27.616 233.157 27.4315 232.788 27.0931C232.419 26.7548 232.05 26.2935 231.65 25.6477ZM231.434 20.5731C230.912 20.7576 230.174 20.9729 229.189 21.1574C228.205 21.3727 227.529 21.5265 227.16 21.6188C226.79 21.711 226.421 21.8956 226.083 22.2031C225.745 22.4799 225.56 22.8797 225.56 23.4026C225.56 23.9254 225.776 24.3867 226.175 24.7558C226.575 25.1248 227.098 25.3094 227.744 25.3094C228.451 25.3094 229.066 25.1556 229.681 24.848C230.266 24.5405 230.696 24.1407 230.973 23.6794C231.281 23.1565 231.434 22.2646 231.434 21.0652V20.5731Z" fill="white"/>
<path d="M242.416 22.5404V25.4622C242.416 26.1695 242.262 26.6924 241.924 27.0614C241.586 27.4305 241.155 27.5843 240.663 27.5843C240.171 27.5843 239.741 27.3997 239.402 27.0307C239.064 26.6616 238.91 26.1388 238.91 25.4314V15.6513C238.91 14.0828 239.494 13.2832 240.632 13.2832C241.217 13.2832 241.647 13.4677 241.893 13.8368C242.139 14.2058 242.293 14.7594 242.324 15.4668C242.755 14.7594 243.185 14.2058 243.616 13.8368C244.046 13.4677 244.661 13.2832 245.369 13.2832C246.107 13.2832 246.814 13.4677 247.522 13.8368C248.229 14.2058 248.567 14.6979 248.567 15.313C248.567 15.7436 248.413 16.0819 248.137 16.3587C247.829 16.6355 247.522 16.7893 247.183 16.7893C247.06 16.7893 246.753 16.697 246.261 16.5432C245.769 16.3894 245.338 16.2972 244.969 16.2972C244.446 16.2972 244.046 16.4202 243.708 16.697C243.37 16.9738 243.124 17.3736 242.939 17.8964C242.755 18.4193 242.632 19.0651 242.57 19.8033C242.447 20.6029 242.416 21.4948 242.416 22.5404Z" fill="white"/>
<path d="M250.015 27.6154C249.492 27.6154 249.031 27.4308 248.631 27.0925C248.231 26.7542 248.047 26.2621 248.047 25.647C248.047 25.1242 248.231 24.6629 248.6 24.2938C248.97 23.9248 249.431 23.7402 249.954 23.7402C250.477 23.7402 250.969 23.9248 251.338 24.2938C251.707 24.6629 251.922 25.1242 251.922 25.647C251.922 26.2621 251.737 26.7235 251.338 27.0925C250.938 27.4616 250.538 27.6154 250.015 27.6154Z" fill="white"/>
<path d="M269.017 23.2795C269.017 23.7101 268.894 24.1714 268.617 24.6943C268.34 25.1863 267.971 25.6784 267.418 26.109C266.864 26.5396 266.218 26.9086 265.388 27.1854C264.558 27.4622 263.666 27.5852 262.651 27.5852C260.467 27.5852 258.776 26.9394 257.576 25.6784C256.346 24.4175 255.762 22.726 255.762 20.6039C255.762 19.1584 256.039 17.8974 256.592 16.7902C257.146 15.6831 257.945 14.8219 259.022 14.2376C260.067 13.6225 261.328 13.3457 262.805 13.3457C263.727 13.3457 264.558 13.4687 265.296 13.7455C266.065 14.0223 266.71 14.3606 267.233 14.7604C267.756 15.191 268.156 15.6216 268.433 16.1136C268.71 16.575 268.863 17.0363 268.863 17.4361C268.863 17.8667 268.71 18.205 268.402 18.5125C268.094 18.7893 267.695 18.9431 267.264 18.9431C266.987 18.9431 266.741 18.8816 266.526 18.7278C266.341 18.574 266.126 18.328 265.88 17.9897C265.45 17.3438 264.988 16.8518 264.527 16.5135C264.066 16.1752 263.481 16.0214 262.743 16.0214C261.697 16.0214 260.867 16.4212 260.221 17.2516C259.575 18.0512 259.268 19.1584 259.268 20.5731C259.268 21.219 259.36 21.8341 259.514 22.3876C259.668 22.9412 259.914 23.4026 260.221 23.8024C260.529 24.2022 260.898 24.479 261.328 24.6943C261.759 24.9096 262.251 25.0018 262.774 25.0018C263.481 25.0018 264.066 24.848 264.588 24.5097C265.08 24.1714 265.542 23.6794 265.911 23.0335C266.126 22.6337 266.341 22.3261 266.618 22.1109C266.864 21.8956 267.172 21.7725 267.541 21.7725C267.971 21.7725 268.34 21.9263 268.617 22.2646C268.863 22.5722 269.017 22.9105 269.017 23.2795Z" fill="white"/>
<path d="M285.716 20.4798C285.716 21.5255 285.562 22.4789 285.224 23.3708C284.886 24.2627 284.424 25.0008 283.809 25.6467C283.194 26.2926 282.456 26.7539 281.595 27.0922C280.734 27.4305 279.78 27.615 278.704 27.615C277.628 27.615 276.674 27.4305 275.844 27.0922C274.983 26.7539 274.275 26.2618 273.629 25.6159C273.014 24.9701 272.522 24.232 272.215 23.3401C271.907 22.4482 271.723 21.4948 271.723 20.4491C271.723 19.3727 271.876 18.4193 272.215 17.5274C272.553 16.6355 273.014 15.8974 273.629 15.2515C274.245 14.6364 274.983 14.1443 275.844 13.806C276.705 13.4677 277.658 13.2832 278.704 13.2832C279.78 13.2832 280.734 13.4677 281.595 13.806C282.456 14.1443 283.194 14.6364 283.809 15.2823C284.424 15.9281 284.886 16.6662 285.224 17.5581C285.562 18.45 285.716 19.4342 285.716 20.4798ZM282.179 20.4798C282.179 19.0344 281.872 17.9272 281.226 17.1276C280.611 16.3279 279.75 15.9281 278.673 15.9281C277.997 15.9281 277.382 16.1127 276.859 16.451C276.336 16.7893 275.936 17.3428 275.659 18.0195C275.382 18.6961 275.229 19.5265 275.229 20.4491C275.229 21.3718 275.382 22.1714 275.659 22.848C275.936 23.5246 276.336 24.0474 276.859 24.4165C277.382 24.7856 277.997 24.9701 278.704 24.9701C279.78 24.9701 280.611 24.5703 281.257 23.7706C281.903 22.971 282.179 21.8946 282.179 20.4798Z" fill="white"/>
<path d="M300.664 20.7591V25.4339C300.664 26.172 300.511 26.7256 300.172 27.0946C299.834 27.4637 299.403 27.6482 298.85 27.6482C298.327 27.6482 297.896 27.4637 297.558 27.0946C297.22 26.7256 297.066 26.172 297.066 25.4339V19.8365C297.066 18.9446 297.035 18.268 296.974 17.7759C296.912 17.2838 296.759 16.884 296.482 16.5764C296.205 16.2689 295.805 16.1151 295.221 16.1151C294.083 16.1151 293.314 16.5149 292.945 17.2838C292.576 18.0527 292.391 19.1906 292.391 20.6668V25.4031C292.391 26.1412 292.238 26.6948 291.899 27.0639C291.561 27.4329 291.13 27.6175 290.607 27.6175C290.085 27.6175 289.654 27.4329 289.316 27.0639C288.978 26.6948 288.793 26.1412 288.793 25.4031V15.3462C288.793 14.7004 288.947 14.1775 289.254 13.8392C289.562 13.5009 289.962 13.3164 290.454 13.3164C290.946 13.3164 291.346 13.4702 291.653 13.8085C291.961 14.116 292.145 14.5774 292.145 15.131V15.4693C292.76 14.7311 293.406 14.2083 294.114 13.87C294.821 13.5317 295.59 13.3472 296.42 13.3472C297.312 13.3472 298.05 13.5317 298.696 13.87C299.342 14.2083 299.865 14.7619 300.265 15.4693C300.849 14.7619 301.495 14.2083 302.171 13.87C302.848 13.5317 303.586 13.3472 304.416 13.3472C305.37 13.3472 306.2 13.5317 306.908 13.9008C307.615 14.2698 308.107 14.8234 308.476 15.5308C308.784 16.1766 308.937 17.1608 308.937 18.514V25.3723C308.937 26.1105 308.784 26.6641 308.445 27.0331C308.107 27.4022 307.677 27.5867 307.123 27.5867C306.6 27.5867 306.17 27.4022 305.831 27.0331C305.493 26.6641 305.308 26.1105 305.308 25.3723V19.4674C305.308 18.6985 305.278 18.1142 305.216 17.6529C305.155 17.1915 304.97 16.8225 304.693 16.5149C304.416 16.2074 303.986 16.0536 303.402 16.0536C302.94 16.0536 302.51 16.1766 302.079 16.4534C301.649 16.7302 301.341 17.0993 301.095 17.5606C300.787 18.2064 300.664 19.2521 300.664 20.7591Z" fill="white"/>
<path d="M13.1333 23.0672C12.3952 22.0523 11.6879 21.0066 11.042 19.9609L5.75215 23.0364C5.29083 23.2825 4.76799 23.1902 4.42969 22.8827V28.111L13.1333 23.0672Z" fill="white"/>
<path d="M4.05965 22.0537V11.2587C4.05965 10.8897 4.24418 10.5514 4.52098 10.3668V8.76758C4.52098 8.76758 1.53775 9.50569 0 14.8571V29.4657C0 30.4806 0.0615094 32.6027 0.0307545 32.5104C0.369059 32.5412 1.2302 32.3259 1.5685 32.3259C2.55266 32.3874 3.53682 32.4489 4.52098 32.5104V22.9456C4.27494 22.7611 4.05965 22.4535 4.05965 22.0537Z" fill="white"/>
<path d="M2.27636 34.9998C3.5163 34.9998 4.52147 33.8294 4.52147 32.3857C4.52147 30.9419 3.5163 29.7715 2.27636 29.7715C1.03642 29.7715 0.03125 30.9419 0.03125 32.3857C0.03125 33.8294 1.03642 34.9998 2.27636 34.9998Z" fill="white"/>
<path d="M13.314 22.9459C13.0987 22.7613 12.9449 22.4538 12.9449 22.1463V18.8555L9.03906 21.1006V25.4063L13.314 22.9459Z" fill="white"/>
<path d="M6.2125 6.0907C4.92079 5.35258 3.35229 5.35258 2.06058 6.0907C0.768874 6.82882 0 8.18204 0 9.68903V14.8866C1.5685 10.9192 4.52098 10.3656 4.52098 10.3656C4.85928 10.1196 5.32061 10.0888 5.72042 10.3041L12.9478 14.4868V11.3498C12.9478 10.8885 13.1939 10.5502 13.5629 10.3656L6.2125 6.0907Z" fill="white"/>
<path d="M5.53516 23.0972C5.81195 23.1895 6.15025 23.1587 6.42705 23.0049L12.9779 19.2221V18.8223L5.75044 23.0049C5.65818 23.0664 5.59667 23.0972 5.53516 23.0972Z" fill="white"/>
<path d="M14.6361 10.3951L20.1104 13.5629C20.664 12.7017 21.2176 11.8714 21.8327 11.041L13.8672 6.42773V10.2721C14.1132 10.2106 14.39 10.2413 14.6361 10.3951Z" fill="white"/>
<path d="M12.9749 11.3486C12.9749 10.7335 13.4362 10.3029 13.9591 10.2414V2.49117C12.5751 2.39891 11.1911 2.36815 9.83789 2.30664C9.80713 2.52193 9.83789 12.4558 9.83789 12.6711L12.9749 14.4856V11.3486Z" fill="white"/>
<path d="M10.6367 20.1755C12.0822 23.5278 13.9583 24.0506 13.9583 24.0506V23.2202C13.4354 23.1587 12.9741 22.7281 12.9741 22.113V18.8223L10.6367 20.1755Z" fill="white"/>
<path d="M11.897 0C14.6034 0 14.6034 5.25909 11.897 5.25909C9.19058 5.25909 9.19058 0 11.897 0Z" fill="white"/>
<path d="M26.4171 13.6552L18.1133 8.85742V12.3942L23.9875 15.7773C24.5103 16.0848 24.6641 16.7307 24.418 17.2228C25.1869 17.6226 26.5401 18.453 27.2475 19.5601C28.939 17.8994 28.5085 14.7931 26.4171 13.6552Z" fill="white"/>
<path d="M24.4156 17.2227C24.3234 17.4072 24.1696 17.561 23.9851 17.684L14.6356 23.0661C13.9282 23.4967 13.0363 23.0046 12.9748 22.205C12.3289 21.8667 11.4678 21.2516 10.6989 20.1136L9.83779 20.6057V23.1891C9.74552 26.0186 13.1286 27.9561 15.5275 26.4799C15.9273 26.1723 27.3374 19.8676 27.2758 19.5293C26.507 18.4529 25.1845 17.6225 24.4156 17.2227Z" fill="white"/>
</svg>
